<svg xmlns="http://www.w3.org/2000/svg" viewBox="6 0 52 54" role="img" aria-label="Pipecrew crew member tipping the hat on a 3D pyramid">
  <!-- Static export of the HeroCrew mascot (src/components/HeroCrew.jsx).
       Pyramid faces are the reduced-motion frame (spin angle -0.6), painted far -> near.
       Colours: ink #1a1814, paper #f3efe7, accent #c8741b. -->

  <!-- 3D build: four faces, far -> near -->
  <g stroke="none">
    <polygon points="32.00,33.22 34.35,40.75 19.49,44.73" fill="rgb(60,55,46)" />
    <polygon points="32.00,33.22 44.51,46.56 34.35,40.75" fill="rgb(32,29,25)" />
    <polygon points="32.00,33.22 19.49,44.73 29.65,50.53" fill="rgb(87,80,67)" />
    <polygon points="32.00,33.22 29.65,50.53 44.51,46.56" fill="rgb(60,55,46)" />
  </g>

  <!-- head -->
  <circle cx="32" cy="24" r="10" fill="#f3efe7" stroke="#1a1814" stroke-width="2.4" stroke-linejoin="round" stroke-linecap="round" />
  <path d="M32 14 A10 10 0 0 1 32 34 Z" fill="#1a1814" opacity="0.13" />

  <!-- hat + hands -->
  <path d="M22 14 Q22 4 32 3 Q42 4 42 14 Z" fill="#c8741b" />
  <path d="M32 3 Q42 4 42 14 L32 14 Z" fill="#1a1814" opacity="0.13" />
  <ellipse cx="32" cy="14.2" rx="18" ry="4" fill="#c8741b" />
  <line x1="24" y1="33" x2="17" y2="26" fill="none" stroke="#1a1814" stroke-width="2.4" stroke-linecap="round" stroke-linejoin="round" />
  <circle cx="15.5" cy="23.5" r="2.8" fill="#f3efe7" stroke="#1a1814" stroke-width="1.9" stroke-linejoin="round" stroke-linecap="round" />
  <line x1="40" y1="33" x2="47" y2="26" fill="none" stroke="#1a1814" stroke-width="2.4" stroke-linecap="round" stroke-linejoin="round" />
  <circle cx="48.5" cy="23.5" r="2.8" fill="#f3efe7" stroke="#1a1814" stroke-width="1.9" stroke-linejoin="round" stroke-linecap="round" />
</svg>
